# Wavefront OBJ exported by MilkShape 3D

mtllib Sakuya's Clock.mtl

v 0.000000 0.626800 5.884100
v 0.000000 0.626800 0.000000
v -2.553000 0.626800 5.301400
v -4.600300 0.626801 3.668600
v -5.736500 0.626801 1.309300
v -5.736500 0.626801 -1.309300
v -4.600300 0.626801 -3.668600
v -2.553000 0.626800 -5.301400
v 0.000000 0.626800 -5.884100
v 2.553000 0.626800 -5.301400
v 4.600300 0.626799 -3.668600
v 5.736500 0.626799 -1.309300
v 5.736500 0.626799 1.309300
v 4.600300 0.626799 3.668700
v 2.553000 0.626800 5.301400
v -2.935600 -0.626800 6.095900
v 0.000000 -0.626800 -0.000000
v 0.000000 -0.626801 6.765900
v -5.289800 -0.626799 4.218500
v -6.596300 -0.626799 1.505600
v -6.596300 -0.626799 -1.505600
v -5.289800 -0.626799 -4.218500
v -2.935600 -0.626800 -6.095900
v 0.000000 -0.626799 -6.765900
v 2.935600 -0.626800 -6.095900
v 5.289800 -0.626801 -4.218500
v 6.596300 -0.626801 -1.505600
v 6.596300 -0.626801 1.505600
v 5.289800 -0.626801 4.218500
v 2.935600 -0.626800 6.095900
v -3.120600 0.382499 6.480100
v 0.000000 0.382499 7.192400
v 0.000000 -0.382501 7.192400
v -3.120600 -0.382501 6.480100
v -3.120600 -0.382501 6.480100
v 0.000000 0.382499 7.192400
v -3.120600 0.382499 6.480100
v 0.000000 -0.382501 7.192400
v -5.623200 0.382501 4.484400
v -5.623200 -0.382499 4.484400
v -5.623200 -0.382499 4.484400
v -5.623200 0.382501 4.484400
v -7.012000 0.382501 1.600400
v -7.012000 -0.382499 1.600400
v -7.012000 -0.382499 1.600400
v -7.012000 0.382501 1.600400
v -7.012000 0.382501 -1.600500
v -7.012000 -0.382499 -1.600500
v -7.012000 -0.382499 -1.600500
v -7.012000 0.382501 -1.600500
v -5.623200 0.382501 -4.484400
v -5.623200 -0.382499 -4.484400
v -5.623200 -0.382499 -4.484400
v -5.623200 0.382501 -4.484400
v -3.120600 0.382501 -6.480100
v -3.120600 -0.382499 -6.480100
v -3.120600 -0.382499 -6.480100
v -3.120600 0.382501 -6.480100
v 0.000000 0.382501 -7.192400
v 0.000000 -0.382499 -7.192400
v 0.000000 -0.382499 -7.192400
v 0.000000 0.382501 -7.192400
v 3.120600 0.382501 -6.480100
v 3.120600 -0.382499 -6.480100
v 3.120600 -0.382499 -6.480100
v 3.120600 0.382501 -6.480100
v 5.623200 0.382499 -4.484400
v 5.623200 -0.382501 -4.484400
v 5.623200 -0.382501 -4.484400
v 5.623200 0.382499 -4.484400
v 7.012000 0.382499 -1.600400
v 7.012000 -0.382501 -1.600400
v 7.012000 -0.382501 -1.600400
v 7.012000 0.382499 -1.600400
v 7.012000 0.382499 1.600500
v 7.012000 -0.382501 1.600500
v 7.012000 -0.382501 1.600500
v 7.012000 0.382499 1.600500
v 5.623200 0.382499 4.484400
v 5.623200 -0.382501 4.484400
v 5.623200 -0.382501 4.484400
v 5.623200 0.382499 4.484400
v 3.120600 0.382499 6.480100
v 3.120600 -0.382501 6.480100
v 3.120600 -0.382501 6.480100
v 3.120600 0.382499 6.480100
# 86 vertices

vt 0.659090 -0.934840
vt 0.658820 -0.648670
vt 0.783100 -0.906530
vt 0.882550 -0.827230
vt 0.937730 -0.712630
vt 0.937730 -0.585430
vt 0.882550 -0.470830
vt 0.783100 -0.391520
vt 0.659090 -0.363220
vt 0.535080 -0.391520
vt 0.435640 -0.470830
vt 0.380450 -0.585430
vt 0.380450 -0.712630
vt 0.435640 -0.827230
vt 0.535080 -0.906530
vt 0.441660 -0.366410
vt 0.410970 -0.302680
vt 0.410970 -0.373420
vt 0.466270 -0.346780
vt 0.479930 -0.318420
vt 0.479930 -0.286950
vt 0.466270 -0.258580
vt 0.441660 -0.238960
vt 0.410970 -0.231950
vt 0.380280 -0.238960
vt 0.355670 -0.258580
vt 0.342010 -0.286950
vt 0.342010 -0.318420
vt 0.355670 -0.346780
vt 0.380280 -0.366410
vt 0.803240 -0.948560
vt 0.658820 -0.981530
vt 0.410970 -0.377870
vt 0.443590 -0.370430
vt 0.919060 -0.856200
vt 0.469760 -0.349560
vt 0.983330 -0.722740
vt 0.484270 -0.319420
vt 0.983330 -0.574610
vt 0.484270 -0.285950
vt 0.919060 -0.441150
vt 0.469760 -0.255810
vt 0.803240 -0.348790
vt 0.443590 -0.234940
vt 0.658820 -0.315820
vt 0.410970 -0.227500
vt 0.514410 -0.348790
vt 0.378350 -0.234940
vt 0.398590 -0.441150
vt 0.352190 -0.255810
vt 0.334320 -0.574610
vt 0.337670 -0.285950
vt 0.334320 -0.722740
vt 0.337670 -0.319420
vt 0.398590 -0.856200
vt 0.352190 -0.349560
vt 0.514410 -0.948560
vt 0.378350 -0.370430
# 58 texture coordinates

vn -0.008411 0.993835 0.110546
vn 0.000000 1.000000 0.000000
vn -0.055541 0.993836 0.095948
vn -0.091669 0.993836 0.062344
vn -0.109644 0.993836 0.016399
vn -0.105898 0.993836 -0.032797
vn -0.081182 0.993836 -0.075497
vn -0.040389 0.993835 -0.103248
vn 0.008411 0.993836 -0.110545
vn 0.055541 0.993836 -0.095947
vn 0.091669 0.993836 -0.062343
vn 0.109644 0.993836 -0.016399
vn 0.105900 0.993836 0.032797
vn 0.081184 0.993836 0.075499
vn 0.040388 0.993835 0.103248
vn -0.112284 -0.951314 0.287044
vn -0.000000 -1.000000 -0.000000
vn 0.023385 -0.951319 0.307321
vn -0.225708 -0.951312 0.209909
vn -0.294456 -0.951304 0.091192
vn -0.304865 -0.951303 -0.045598
vn -0.254872 -0.951311 -0.173345
vn -0.154417 -0.951311 -0.266765
vn -0.023385 -0.951319 -0.307321
vn 0.112283 -0.951314 -0.287045
vn 0.225708 -0.951312 -0.209909
vn 0.294456 -0.951304 -0.091193
vn 0.304865 -0.951303 0.045598
vn 0.254872 -0.951311 0.173345
vn 0.154417 -0.951311 0.266765
vn -0.067056 0.982912 0.171428
vn 0.013964 0.982913 0.183542
vn -0.037791 -0.867097 0.496703
vn -0.249578 -0.867075 0.431153
vn -0.364288 0.000000 0.931286
vn -0.075866 0.000000 0.997118
vn -0.500978 0.000000 0.865460
vn 0.075866 0.000000 0.997118
vn -0.134789 0.982914 0.125348
vn -0.411944 -0.867068 0.280170
vn -0.732277 0.000000 0.681007
vn -0.826882 0.000000 0.562376
vn -0.175829 0.982913 0.054454
vn -0.492743 -0.867048 0.073697
vn -0.955241 0.000000 0.295829
vn -0.989000 0.000000 0.147914
vn -0.182044 0.982913 -0.027227
vn -0.475895 -0.867065 -0.147385
vn -0.989000 0.000000 -0.147919
vn -0.955238 0.000000 -0.295837
vn -0.152196 0.982915 -0.103514
vn -0.364799 -0.867078 -0.339259
vn -0.826876 0.000000 -0.562384
vn -0.732274 0.000000 -0.681010
vn -0.092218 0.982913 -0.159306
vn -0.181476 -0.867082 -0.463934
vn -0.500978 0.000000 -0.865460
vn -0.364288 0.000000 -0.931286
vn -0.013964 0.982913 -0.183542
vn 0.037791 -0.867097 -0.496703
vn -0.075866 0.000000 -0.997118
vn 0.075866 0.000000 -0.997118
vn 0.067056 0.982912 -0.171428
vn 0.249578 -0.867074 -0.431153
vn 0.364288 0.000000 -0.931286
vn 0.500978 0.000000 -0.865460
vn 0.134789 0.982914 -0.125348
vn 0.411944 -0.867068 -0.280170
vn 0.732277 0.000000 -0.681007
vn 0.826882 0.000000 -0.562376
vn 0.175829 0.982913 -0.054454
vn 0.492743 -0.867048 -0.073697
vn 0.955241 0.000000 -0.295829
vn 0.989000 0.000000 -0.147914
vn 0.182044 0.982913 0.027227
vn 0.475896 -0.867065 0.147384
vn 0.989000 0.000000 0.147919
vn 0.955238 0.000000 0.295837
vn 0.152201 0.982914 0.103516
vn 0.364799 -0.867079 0.339259
vn 0.826876 0.000000 0.562384
vn 0.732274 0.000000 0.681010
vn 0.092219 0.982912 0.159309
vn 0.181475 -0.867083 0.463934
vn 0.500978 0.000000 0.865460
vn 0.364288 0.000000 0.931286
# 86 normals

g Model::Mesh_1
usemtl Mat1Tex1
s 1
f 1/1/1 2/2/2 3/3/3
f 3/3/3 2/2/2 4/4/4
f 4/4/4 2/2/2 5/5/5
f 5/5/5 2/2/2 6/6/6
f 6/6/6 2/2/2 7/7/7
f 7/7/7 2/2/2 8/8/8
f 8/8/8 2/2/2 9/9/9
f 9/9/9 2/2/2 10/10/10
f 10/10/10 2/2/2 11/11/11
f 11/11/11 2/2/2 12/12/12
f 12/12/12 2/2/2 13/13/13
f 13/13/13 2/2/2 14/14/14
f 14/14/14 2/2/2 15/15/15
f 15/15/15 2/2/2 1/1/1
f 16/16/16 17/17/17 18/18/18
f 19/19/19 17/17/17 16/16/16
f 20/20/20 17/17/17 19/19/19
f 21/21/21 17/17/17 20/20/20
f 22/22/22 17/17/17 21/21/21
f 23/23/23 17/17/17 22/22/22
f 24/24/24 17/17/17 23/23/23
f 25/25/25 17/17/17 24/24/24
f 26/26/26 17/17/17 25/25/25
f 27/27/27 17/17/17 26/26/26
f 28/28/28 17/17/17 27/27/27
f 29/29/29 17/17/17 28/28/28
f 30/30/30 17/17/17 29/29/29
f 18/18/18 17/17/17 30/30/30
f 1/1/1 31/31/31 32/32/32
f 31/31/31 1/1/1 3/3/3
f 16/16/16 33/33/33 34/34/34
f 33/33/33 16/16/16 18/18/18
f 35/31/35 36/32/36 37/31/37
f 36/32/36 35/31/35 38/32/38
f 3/3/3 39/35/39 31/31/31
f 39/35/39 3/3/3 4/4/4
f 19/19/19 34/34/34 40/36/40
f 34/34/34 19/19/19 16/16/16
f 41/35/41 37/31/37 42/35/42
f 37/31/37 41/35/41 35/31/35
f 4/4/4 43/37/43 39/35/39
f 43/37/43 4/4/4 5/5/5
f 20/20/20 40/36/40 44/38/44
f 40/36/40 20/20/20 19/19/19
f 45/37/45 42/35/42 46/37/46
f 42/35/42 45/37/45 41/35/41
f 5/5/5 47/39/47 43/37/43
f 47/39/47 5/5/5 6/6/6
f 21/21/21 44/38/44 48/40/48
f 44/38/44 21/21/21 20/20/20
f 49/39/49 46/37/46 50/39/50
f 46/37/46 49/39/49 45/37/45
f 6/6/6 51/41/51 47/39/47
f 51/41/51 6/6/6 7/7/7
f 22/22/22 48/40/48 52/42/52
f 48/40/48 22/22/22 21/21/21
f 53/41/53 50/39/50 54/41/54
f 50/39/50 53/41/53 49/39/49
f 7/7/7 55/43/55 51/41/51
f 55/43/55 7/7/7 8/8/8
f 23/23/23 52/42/52 56/44/56
f 52/42/52 23/23/23 22/22/22
f 57/43/57 54/41/54 58/43/58
f 54/41/54 57/43/57 53/41/53
f 8/8/8 59/45/59 55/43/55
f 59/45/59 8/8/8 9/9/9
f 24/24/24 56/44/56 60/46/60
f 56/44/56 24/24/24 23/23/23
f 61/45/61 58/43/58 62/45/62
f 58/43/58 61/45/61 57/43/57
f 9/9/9 63/47/63 59/45/59
f 63/47/63 9/9/9 10/10/10
f 25/25/25 60/46/60 64/48/64
f 60/46/60 25/25/25 24/24/24
f 65/47/65 62/45/62 66/47/66
f 62/45/62 65/47/65 61/45/61
f 10/10/10 67/49/67 63/47/63
f 67/49/67 10/10/10 11/11/11
f 26/26/26 64/48/64 68/50/68
f 64/48/64 26/26/26 25/25/25
f 69/49/69 66/47/66 70/49/70
f 66/47/66 69/49/69 65/47/65
f 11/11/11 71/51/71 67/49/67
f 71/51/71 11/11/11 12/12/12
f 27/27/27 68/50/68 72/52/72
f 68/50/68 27/27/27 26/26/26
f 73/51/73 70/49/70 74/51/74
f 70/49/70 73/51/73 69/49/69
f 12/12/12 75/53/75 71/51/71
f 75/53/75 12/12/12 13/13/13
f 28/28/28 72/52/72 76/54/76
f 72/52/72 28/28/28 27/27/27
f 77/53/77 74/51/74 78/53/78
f 74/51/74 77/53/77 73/51/73
f 13/13/13 79/55/79 75/53/75
f 79/55/79 13/13/13 14/14/14
f 29/29/29 76/54/76 80/56/80
f 76/54/76 29/29/29 28/28/28
f 81/55/81 78/53/78 82/55/82
f 78/53/78 81/55/81 77/53/77
f 14/14/14 83/57/83 79/55/79
f 83/57/83 14/14/14 15/15/15
f 30/30/30 80/56/80 84/58/84
f 80/56/80 30/30/30 29/29/29
f 85/57/85 82/55/82 86/57/86
f 82/55/82 85/57/85 81/55/81
f 15/15/15 32/32/32 83/57/83
f 32/32/32 15/15/15 1/1/1
f 18/18/18 84/58/84 33/33/33
f 84/58/84 18/18/18 30/30/30
f 38/32/38 86/57/86 36/32/36
f 86/57/86 38/32/38 85/57/85
# 112 triangles in group

# 112 triangles total

